<svg width="40" height="44" viewBox="0 0 40 44" fill="none" xmlns="http://www.w3.org/2000/svg">
<path d="M11.75 34C9.18333 34 7.23333 33.05 5.9 31.15C4.56667 29.25 3.93333 27.1167 4 24.75L3.1 23.4C2.73333 22.8333 2.125 21.55 1.275 19.55C0.425 17.55 0 15.0333 0 12C0 8.56667 0.85 5.70833 2.55 3.425C4.25 1.14167 6.4 0 9 0C11.8333 0 14.0417 1.25833 15.625 3.775C17.2083 6.29167 18 9.03333 18 12C18 13.9333 17.7333 15.7167 17.2 17.35C16.6667 18.9833 16.2 20.3 15.8 21.3L16.2 21.95C16.4667 22.4167 16.8333 23.1583 17.3 24.175C17.7667 25.1917 18 26.25 18 27.35C18 29.25 17.4083 30.8333 16.225 32.1C15.0417 33.3667 13.55 34 11.75 34ZM5.75 21.95L12.95 20.45C13.4167 19.1833 13.875 17.7833 14.325 16.25C14.775 14.7167 15 13.3 15 12C15 9.76667 14.475 7.70833 13.425 5.825C12.375 3.94167 10.9 3 9 3C7.26667 3 5.83333 3.85 4.7 5.55C3.56667 7.25 3 9.4 3 12C3 14.6 3.38333 16.7917 4.15 18.575C4.91667 20.3583 5.45 21.4833 5.75 21.95ZM11.75 31C12.6833 31 13.4583 30.6583 14.075 29.975C14.6917 29.2917 15 28.4167 15 27.35C15 26.6833 14.85 25.9917 14.55 25.275C14.25 24.5583 13.9167 23.9167 13.55 23.35L7 24.7C6.96667 26.1333 7.325 27.5417 8.075 28.925C8.825 30.3083 10.05 31 11.75 31ZM28.25 44C26.45 44 24.9583 43.3667 23.775 42.1C22.5917 40.8333 22 39.25 22 37.35C22 36.25 22.2333 35.1917 22.7 34.175C23.1667 33.1583 23.5333 32.4167 23.8 31.95L24.2 31.3C23.8 30.3 23.3333 28.9833 22.8 27.35C22.2667 25.7167 22 23.9333 22 22C22 19.0333 22.7917 16.2917 24.375 13.775C25.9583 11.2583 28.1667 10 31 10C33.6 10 35.75 11.1417 37.45 13.425C39.15 15.7083 40 18.5667 40 22C40 25.0333 39.575 27.5417 38.725 29.525C37.875 31.5083 37.2667 32.7833 36.9 33.35L36 34.75C36.0333 37.1167 35.3917 39.25 34.075 41.15C32.7583 43.05 30.8167 44 28.25 44ZM34.25 31.9C34.5833 31.4 35.125 30.2667 35.875 28.5C36.625 26.7333 37 24.5667 37 22C37 19.4 36.4333 17.25 35.3 15.55C34.1667 13.85 32.7333 13 31 13C29.1 13 27.625 13.9417 26.575 15.825C25.525 17.7083 25 19.7667 25 22C25 23.3333 25.2333 24.7583 25.7 26.275C26.1667 27.7917 26.6333 29.1833 27.1 30.45L34.25 31.9ZM28.25 41C29.95 41 31.1667 40.3 31.9 38.9C32.6333 37.5 33 36.0833 33 34.65L26.45 33.35C26.1167 33.9167 25.7917 34.5583 25.475 35.275C25.1583 35.9917 25 36.6833 25 37.35C25 38.4167 25.3083 39.2917 25.925 39.975C26.5417 40.6583 27.3167 41 28.25 41Z" fill="#00AEFF"/>
</svg>
