<svg width="22" height="20" viewBox="0 0 22 20" fill="none" xmlns="http://www.w3.org/2000/svg">
<path d="M21.6882 4.34384C21.5621 3.85039 21.3675 3.37703 21.11 2.93759C20.8627 2.48045 20.5465 2.06411 20.1725 1.70321C19.6303 1.1628 18.9882 0.732951 18.2819 0.437591C16.8603 -0.145864 15.266 -0.145864 13.8444 0.437591C13.1768 0.720151 12.5635 1.11669 12.0319 1.60946L11.9538 1.70321L10.9382 2.71884L9.92253 1.70321L9.84443 1.60946C9.31279 1.11669 8.69948 0.720151 8.03193 0.437591C6.6103 -0.145864 5.01606 -0.145864 3.59443 0.437591C2.88815 0.732951 2.24604 1.1628 1.70381 1.70321C0.962192 2.42482 0.4372 3.33949 0.188183 4.34384C0.0557061 4.85387 -0.00736294 5.37944 0.000683057 5.90634C0.000683057 6.40165 0.0631831 6.8954 0.188183 7.37509C0.319173 7.85953 0.508032 8.32644 0.750682 8.76571C1.01274 9.21729 1.33321 9.63233 1.70381 10.0001L10.9382 19.2345L20.1725 10.0001C20.5428 9.63603 20.86 9.21884 21.11 8.76571C21.6175 7.89869 21.882 6.91094 21.8757 5.90634C21.8838 5.37944 21.8207 4.85386 21.6882 4.34384ZM20.1257 6.89071C19.9385 7.60465 19.5667 8.25672 19.0475 8.78134L10.9069 16.9064L2.76631 8.78134C2.50103 8.51418 2.27008 8.215 2.07881 7.89071C1.89882 7.5699 1.75722 7.22901 1.65693 6.87509C1.57687 6.52121 1.53496 6.15977 1.53193 5.79696C1.53405 5.42378 1.57595 5.05189 1.65693 4.68759C1.75428 4.33265 1.89602 3.99141 2.07881 3.67196C2.26631 3.34384 2.49756 3.04696 2.76631 2.78134C3.16771 2.38531 3.63927 2.06741 4.15693 1.84384C5.20008 1.42653 6.36378 1.42653 7.40693 1.84384C7.92256 2.0579 8.38818 2.37196 8.78193 2.76571L10.9069 4.90634L13.0319 2.76571C13.4254 2.37127 13.8926 2.05803 14.4069 1.84384C15.45 1.42653 16.6138 1.42653 17.6569 1.84384C18.1741 2.06728 18.646 2.38603 19.0475 2.78134C19.3194 3.03915 19.5475 3.33915 19.7194 3.67196C20.0813 4.31019 20.2698 5.03203 20.2663 5.76571C20.2875 6.14325 20.256 6.5219 20.1725 6.89071H20.1257Z" fill="#574AE8"/>
</svg>
